<svg width="23" height="23" viewBox="0 0 23 23" fill="none" xmlns="http://www.w3.org/2000/svg">
<path d="M19.4571 17.0782H6.90629L3.21486 1H1M3.95314 4.06252H21.672L19.4571 14.0157H6.168L3.95314 4.06252Z" stroke="white" stroke-width="1.4592" stroke-linecap="round" stroke-linejoin="round"/>
<path d="M17.9806 21.672C18.7961 21.672 19.4572 20.9864 19.4572 20.1408C19.4572 19.2951 18.7961 18.6095 17.9806 18.6095C17.1651 18.6095 16.504 19.2951 16.504 20.1408C16.504 20.9864 17.1651 21.672 17.9806 21.672Z" stroke="white" stroke-width="1.4592" stroke-linecap="round" stroke-linejoin="round"/>
<path d="M8.38307 21.672C9.19855 21.672 9.85964 20.9864 9.85964 20.1408C9.85964 19.2951 9.19855 18.6095 8.38307 18.6095C7.56758 18.6095 6.90649 19.2951 6.90649 20.1408C6.90649 20.9864 7.56758 21.672 8.38307 21.672Z" stroke="white" stroke-width="1.4592" stroke-linecap="round" stroke-linejoin="round"/>
</svg>
